<?xml version="1.0" encoding="utf-8"?>
<!-- Generator: Adobe Illustrator 27.0.0, SVG Export Plug-In . SVG Version: 6.00 Build 0)  -->
<svg version="1.1" id="Calque_1" xmlns="http://www.w3.org/2000/svg" xmlns:xlink="http://www.w3.org/1999/xlink" x="0px" y="0px"
	 viewBox="0 0 1080 1350" style="enable-background:new 0 0 1080 1350;" xml:space="preserve">
<style type="text/css">
	.st0{fill:url(#SVGID_1_);}
	.st1{fill:#148CB0;}
	.st2{fill:url(#SVGID_00000093163746717761739610000004120681225989973431_);}
	.st3{fill:url(#SVGID_00000096028692098597370330000002215123107190753708_);}
	.st4{fill:#011F3B;}
	.st5{fill:url(#SVGID_00000055669932975254138990000016307817895553985421_);}
	.st6{fill:url(#SVGID_00000114754290285668710150000005440772653377304209_);}
	.st7{fill:url(#SVGID_00000037669078870667254650000006056144177562223792_);}
	.st8{fill:url(#SVGID_00000163788369465337054540000016710250341674981538_);}
	.st9{fill:#043355;}
</style>
<g>
	<g>
		<linearGradient id="SVGID_1_" gradientUnits="userSpaceOnUse" x1="747.6895" y1="716.2454" x2="747.6895" y2="716.2454">
			<stop  offset="1.281415e-03" style="stop-color:#043355"/>
			<stop  offset="0.4165" style="stop-color:#135D7D"/>
			<stop  offset="0.7916" style="stop-color:#1F7C9B"/>
			<stop  offset="1" style="stop-color:#2388A6"/>
		</linearGradient>
		<path class="st0" d="M747.69,716.25"/>
		<path class="st1" d="M706.64,485.05c-0.02,46.15-0.04,92.3-0.07,138.44c5.75,1.47,11.5,2.93,17.24,4.4
			c8.67,3.55,17.35,7.1,26.02,10.64c5.43,4.24,10.87,8.49,16.3,12.73c0.87-29.98,1.51-60.38,1.91-91.2
			c0.43-32.88,0.56-65.3,0.43-97.24c-2.32,0.4-5.91,1.08-10.2,2.23c-15.23,4.08-21.41,9.88-37.39,15.69
			C717.75,481.88,712.86,483.53,706.64,485.05z"/>
		<g>
			
				<linearGradient id="SVGID_00000141436035817024811720000009082867607768476327_" gradientUnits="userSpaceOnUse" x1="311.466" y1="543.0607" x2="768.5323" y2="543.0607">
				<stop  offset="0" style="stop-color:#043355"/>
				<stop  offset="0.0468" style="stop-color:#084062"/>
				<stop  offset="0.1934" style="stop-color:#146686"/>
				<stop  offset="0.3402" style="stop-color:#1C83A3"/>
				<stop  offset="0.4853" style="stop-color:#2397B7"/>
				<stop  offset="0.628" style="stop-color:#27A4C3"/>
				<stop  offset="0.7655" style="stop-color:#28A8C7"/>
			</linearGradient>
			<path style="fill:url(#SVGID_00000141436035817024811720000009082867607768476327_);" d="M768.3,438.26
				c-0.03-11.56-0.07-23.12-0.09-34.67c-16.48,1.07-39.3,4.09-65.31,12.54c-14.56,4.74-25.99,9.84-33.28,13.36
				c-34.92,16.89-57.92,37.84-66.16,45.72c-53.01,50.7-62.05,103.06-62.45,106.53c-0.01,0.08-0.02,0.16-0.02,0.16
				c-0.06,0.5-0.21,1.81-0.36,3.5c-0.15-1.69-0.29-3-0.35-3.5c0,0-0.01-0.08-0.02-0.16c-0.41-3.47-9.46-55.82-62.46-106.53
				c-8.23-7.88-31.24-28.83-66.16-45.72c-7.27-3.52-18.68-8.62-33.27-13.36c-26.75-8.7-50.19-11.66-66.9-12.64v73.57
				c0.39-0.1,0.8-0.2,1.22-0.31c-0.4,0.12-0.78,0.25-1.16,0.36c0,108.14,0,164.47,0,164.47s0.01,0,0.02-0.01
				c-0.02,13.69-0.06,27.39-0.08,41.07l3.36-2.21c16.68-8.57,42.3-18.96,74.74-21.88c15.03-1.35,40.69-3.4,70.82,6.97
				c8.07,2.78,15.48,6.32,15.48,6.32c4.51,2.17,8.17,4.25,10.79,5.82c5.07-2.29,12.94-5.87,22.58-10.39
				c8.82-4.14,11.11-5.31,21.68-10.31c11.62-5.49,20.93-9.78,25.95-12.08c7.57-3.47,17.09-7.79,28.17-12.7
				c0.73-10.13,2.67-24.13,7.98-39.99c10.92-32.65,29.59-53.79,38.87-63.16c27.88-28.16,58.17-38.12,71.46-42.32
				c26.82-8.47,50.2-9.1,65.2-8.35C768.45,464.99,768.38,451.62,768.3,438.26z M452.33,629.69c-14.49-5.13-27.34-7.3-33.83-8.21
				c-10.06-1.4-18.76-1.69-23.51-1.84c-7.32-0.23-13.6-0.1-18.45,0.1c0.02-1.34,0.05-3.35,0.1-5.79c0.15-8.19,0.3-13.62,0.33-15.73
				c0.13-7.43-0.07-14.86-0.1-22.29c-0.04-10.06-0.09-20.13-0.15-30.19c-0.03-9.13-0.21-46.27-0.28-58.13
				c12.46,3.78,31.26,11.1,50.47,25.79c25.67,19.64,38.26,42.04,47.42,58.72c17.27,31.45,24.34,61.86,27.16,85.24
				C489.33,647.59,472.89,636.97,452.33,629.69z"/>
		</g>
		<g>
			
				<linearGradient id="SVGID_00000121272317586739021990000009428359727626071718_" gradientUnits="userSpaceOnUse" x1="464.0164" y1="457.5818" x2="617.9811" y2="457.5818">
				<stop  offset="0" style="stop-color:#EF5F1E"/>
				<stop  offset="1" style="stop-color:#FDA03E"/>
			</linearGradient>
			<path style="fill:url(#SVGID_00000121272317586739021990000009428359727626071718_);" d="M617.98,403.48
				c-4.15,6.78-77.29,108.21-77.29,108.21l-76.68-108.21H617.98z"/>
		</g>
		<path class="st4" d="M311.48,734.34c5.92-0.3,14-0.91,23.52-2.23c8.67-1.21,24.8-3.88,48.06-11.18
			c8.83-2.77,19.75-6.55,61.52-24.68c17.59-7.64,32.08-14.1,42.07-18.59c-12.7-7.32-23.92-11.5-31.79-13.94
			c-38.75-12.04-72.1-5.6-85.49-3.01c-11.92,2.3-21.41,5.42-28.82,7.86c-10,3.29-16.1,5.92-22.2,9.39
			c-2.92,1.66-5.27,3.19-6.88,4.28C311.48,699.6,311.48,716.97,311.48,734.34z"/>
		
			<linearGradient id="SVGID_00000147185650567430377730000017015609997761022349_" gradientUnits="userSpaceOnUse" x1="765.2957" y1="651.3112" x2="766.1452" y2="651.3112">
			<stop  offset="0.1252" style="stop-color:#043355"/>
			<stop  offset="0.1348" style="stop-color:#043557"/>
			<stop  offset="0.3038" style="stop-color:#0B557A"/>
			<stop  offset="0.475" style="stop-color:#106E96"/>
			<stop  offset="0.6473" style="stop-color:#1380A9"/>
			<stop  offset="0.8214" style="stop-color:#158AB5"/>
			<stop  offset="1" style="stop-color:#168EB9"/>
		</linearGradient>
		<path style="fill:url(#SVGID_00000147185650567430377730000017015609997761022349_);" d="M766.15,651.26
			c-0.1,0.16-0.44,0.12-0.85,0.02C765.58,651.27,765.87,651.27,766.15,651.26z"/>
		
			<linearGradient id="SVGID_00000029015014751432020680000012656777958840428957_" gradientUnits="userSpaceOnUse" x1="394.3301" y1="703.5657" x2="766.577" y2="662.9347">
			<stop  offset="0.1252" style="stop-color:#043355"/>
			<stop  offset="0.1346" style="stop-color:#043557"/>
			<stop  offset="0.2998" style="stop-color:#0B557A"/>
			<stop  offset="0.4673" style="stop-color:#106E96"/>
			<stop  offset="0.6358" style="stop-color:#1380A9"/>
			<stop  offset="0.806" style="stop-color:#158AB5"/>
			<stop  offset="0.9807" style="stop-color:#168EB9"/>
		</linearGradient>
		<path style="fill:url(#SVGID_00000029015014751432020680000012656777958840428957_);" d="M766.15,651.26
			c-0.28,0.01-0.57,0.01-0.85,0.02h-0.01c-12.31,0.04-22.66,0.85-30.38,1.69c-12.11,1.32-32.29,3.65-56.51,12.41
			c-7.19,2.6-13.01,5.14-16.99,6.99c-16.15,8.87-32.29,17.77-48.42,26.69c-22.76,12.59-45.49,25.24-68.2,37.94
			c-42.54-0.23-85.07-0.32-127.61-0.29c-8.5,0.01-16.99,0.02-25.49,0.04c2.78-0.47,6.48-1.15,10.81-2.11
			c1.6-0.35,8.61-1.92,18.22-4.84c10.14-3.08,18.9-6.36,29.18-10.22l0,0c6.66-2.62,17.9-7.16,31.58-13.32
			c63.43-28.54,109.83-60.5,156.82-75.34c16.19-5.11,27.57-6.7,36.7-7.84c17.37-2.16,28.22-1.33,34.14-0.63
			c7.35,0.87,12.1,2.13,14.03,2.67c9.77,2.75,16.55,6.59,20.66,8.94C749.73,637.47,757.82,642.89,766.15,651.26z"/>
		
			<radialGradient id="SVGID_00000054971579746358382930000010619453840790711181_" cx="655.4649" cy="692.4534" r="118.4936" fx="546.4462" fy="738.8823" gradientUnits="userSpaceOnUse">
			<stop  offset="0.2414" style="stop-color:#151419"/>
			<stop  offset="0.4477" style="stop-color:#2A201F"/>
			<stop  offset="0.8716" style="stop-color:#5F3F2E"/>
			<stop  offset="0.8839" style="stop-color:#61402E"/>
		</radialGradient>
		<path style="fill:url(#SVGID_00000054971579746358382930000010619453840790711181_);" d="M766.15,736.7v-86.17
			c-10.85-1.98-27.72-3.95-47.88-1.46c-32.72,4.05-56.51,17.72-87.56,35.55c-16.28,9.35-18.54,12.04-57.4,35.44
			c-12.03,7.24-21.97,13.1-28.52,16.94h44.27c29.84-0.05,59.69-0.1,89.53-0.15C707.77,736.8,736.96,736.75,766.15,736.7z"/>
	</g>
	
		<linearGradient id="SVGID_00000041980169144448175800000016939739027755164335_" gradientUnits="userSpaceOnUse" x1="311.466" y1="650.0781" x2="509.2332" y2="650.0781">
		<stop  offset="0.1181" style="stop-color:#043355"/>
		<stop  offset="0.3119" style="stop-color:#053658"/>
		<stop  offset="0.4673" style="stop-color:#084062"/>
		<stop  offset="0.6093" style="stop-color:#0D5172"/>
		<stop  offset="0.7435" style="stop-color:#156989"/>
		<stop  offset="0.8709" style="stop-color:#1E87A7"/>
		<stop  offset="0.9807" style="stop-color:#28A8C7"/>
	</linearGradient>
	<path style="fill:url(#SVGID_00000041980169144448175800000016939739027755164335_);" d="M485.75,645.88
		c-13.76-8.74-64.15-38.39-125.13-24.89c-20.66,4.57-37.12,12.9-49.08,20.58c-0.03,13.69-0.05,27.38-0.08,41.07
		c14.58-8.31,38.76-19.54,70.47-23.25c49.61-5.81,88.23,10.21,104.72,18.27l22.58-10.39c-2.58-3.3-5.16-6.6-7.74-9.9
		C496.25,653.53,491,649.71,485.75,645.88z"/>
</g>
<g>
	<g>
		<path d="M325.77,836.81v-66.22h7.76l29.71,50.05h-4.16l29.33-50.05h7.76l0.09,66.22h-9.08l-0.09-51.94h2.18l-26.11,43.9h-4.35
			l-26.3-43.9h2.37v51.94H325.77z"/>
		<path d="M416.11,836.81v-66.22h9.46v66.22H416.11z"/>
		<path d="M445.44,836.81v-66.22h25.83c8.58,0,15.33,2.03,20.25,6.1c4.92,4.07,7.38,9.73,7.38,16.98c0,4.79-1.1,8.91-3.31,12.35
			c-2.21,3.44-5.36,6.07-9.46,7.9c-4.1,1.83-9.05,2.74-14.85,2.74h-20.62l4.26-4.35v24.5H445.44z M454.9,813.26l-4.26-4.64h20.34
			c6.05,0,10.64-1.31,13.76-3.93s4.68-6.29,4.68-11.02c0-4.73-1.56-8.39-4.68-10.97c-3.12-2.59-7.71-3.88-13.76-3.88h-20.34
			l4.26-4.73V813.26z M489.72,836.81l-16.84-24.03H483l17.03,24.03H489.72z"/>
		<path d="M504.19,836.81l29.99-66.22h9.37l30.08,66.22h-9.93l-26.77-60.93h3.78l-26.77,60.93H504.19z M516.96,820.26l2.55-7.57
			h37.27l2.74,7.57H516.96z"/>
		<path d="M612.14,837.57c-5.05,0-9.7-0.83-13.95-2.51c-4.26-1.67-7.95-4.04-11.07-7.1c-3.12-3.06-5.57-6.64-7.33-10.74
			c-1.77-4.1-2.65-8.61-2.65-13.53c0-4.92,0.88-9.43,2.65-13.53c1.76-4.1,4.22-7.68,7.38-10.74c3.15-3.06,6.86-5.42,11.12-7.1
			c4.26-1.67,8.91-2.51,13.95-2.51c5.11,0,9.82,0.87,14.14,2.6c4.32,1.74,7.99,4.3,11.02,7.71l-6.15,5.96
			c-2.52-2.65-5.36-4.62-8.51-5.91c-3.15-1.29-6.53-1.94-10.12-1.94c-3.72,0-7.18,0.63-10.36,1.89c-3.19,1.26-5.95,3.03-8.28,5.3
			c-2.33,2.27-4.15,4.97-5.44,8.09c-1.29,3.12-1.94,6.51-1.94,10.17c0,3.66,0.65,7.05,1.94,10.17c1.29,3.12,3.11,5.82,5.44,8.09
			c2.33,2.27,5.09,4.04,8.28,5.3c3.18,1.26,6.64,1.89,10.36,1.89c3.59,0,6.97-0.65,10.12-1.94c3.15-1.29,5.99-3.29,8.51-6.01
			l6.15,5.96c-3.03,3.41-6.7,5.99-11.02,7.76C622.05,836.69,617.31,837.57,612.14,837.57z"/>
		<path d="M649.98,836.81v-66.22h9.46v57.99h35.86v8.23H649.98z"/>
		<path d="M706.17,836.81v-66.22h46.74v8.23h-37.27v49.76h38.6v8.23H706.17z M714.78,807.2v-8.04h34.06v8.04H714.78z"/>
	</g>
	<g>
		<path class="st9" d="M325.77,836.81v-66.22h7.76l29.71,50.05h-4.16l29.33-50.05h7.76l0.09,66.22h-9.08l-0.09-51.94h2.18
			l-26.11,43.9h-4.35l-26.3-43.9h2.37v51.94H325.77z"/>
		<path class="st9" d="M416.11,836.81v-66.22h9.46v66.22H416.11z"/>
		<path class="st9" d="M445.44,836.81v-66.22h25.83c8.58,0,15.33,2.03,20.25,6.1c4.92,4.07,7.38,9.73,7.38,16.98
			c0,4.79-1.1,8.91-3.31,12.35c-2.21,3.44-5.36,6.07-9.46,7.9c-4.1,1.83-9.05,2.74-14.85,2.74h-20.62l4.26-4.35v24.5H445.44z
			 M454.9,813.26l-4.26-4.64h20.34c6.05,0,10.64-1.31,13.76-3.93s4.68-6.29,4.68-11.02c0-4.73-1.56-8.39-4.68-10.97
			c-3.12-2.59-7.71-3.88-13.76-3.88h-20.34l4.26-4.73V813.26z M489.72,836.81l-16.84-24.03H483l17.03,24.03H489.72z"/>
		<path class="st9" d="M504.19,836.81l29.99-66.22h9.37l30.08,66.22h-9.93l-26.77-60.93h3.78l-26.77,60.93H504.19z M516.96,820.26
			l2.55-7.57h37.27l2.74,7.57H516.96z"/>
		<path class="st9" d="M612.14,837.57c-5.05,0-9.7-0.83-13.95-2.51c-4.26-1.67-7.95-4.04-11.07-7.1c-3.12-3.06-5.57-6.64-7.33-10.74
			c-1.77-4.1-2.65-8.61-2.65-13.53c0-4.92,0.88-9.43,2.65-13.53c1.76-4.1,4.22-7.68,7.38-10.74c3.15-3.06,6.86-5.42,11.12-7.1
			c4.26-1.67,8.91-2.51,13.95-2.51c5.11,0,9.82,0.87,14.14,2.6c4.32,1.74,7.99,4.3,11.02,7.71l-6.15,5.96
			c-2.52-2.65-5.36-4.62-8.51-5.91c-3.15-1.29-6.53-1.94-10.12-1.94c-3.72,0-7.18,0.63-10.36,1.89c-3.19,1.26-5.95,3.03-8.28,5.3
			c-2.33,2.27-4.15,4.97-5.44,8.09c-1.29,3.12-1.94,6.51-1.94,10.17c0,3.66,0.65,7.05,1.94,10.17c1.29,3.12,3.11,5.82,5.44,8.09
			c2.33,2.27,5.09,4.04,8.28,5.3c3.18,1.26,6.64,1.89,10.36,1.89c3.59,0,6.97-0.65,10.12-1.94c3.15-1.29,5.99-3.29,8.51-6.01
			l6.15,5.96c-3.03,3.41-6.7,5.99-11.02,7.76C622.05,836.69,617.31,837.57,612.14,837.57z"/>
		<path class="st9" d="M649.98,836.81v-66.22h9.46v57.99h35.86v8.23H649.98z"/>
		<path class="st9" d="M706.17,836.81v-66.22h46.74v8.23h-37.27v49.76h38.6v8.23H706.17z M714.78,807.2v-8.04h34.06v8.04H714.78z"/>
	</g>
</g>
<g>
	<g>
		<path d="M443.94,895.58c-3.45,0-6.63-0.56-9.52-1.69c-2.9-1.13-5.41-2.73-7.54-4.79c-2.13-2.07-3.79-4.48-4.99-7.25
			c-1.19-2.77-1.79-5.82-1.79-9.14c0-3.32,0.6-6.37,1.79-9.14c1.19-2.77,2.87-5.19,5.02-7.25c2.15-2.07,4.68-3.66,7.57-4.79
			c2.9-1.13,6.09-1.69,9.59-1.69c3.54,0,6.78,0.58,9.71,1.73c2.94,1.15,5.43,2.88,7.48,5.18l-3.96,3.96
			c-1.83-1.79-3.83-3.1-5.98-3.93s-4.48-1.25-7-1.25c-2.56,0-4.93,0.43-7.13,1.28c-2.2,0.85-4.09,2.04-5.69,3.58
			s-2.83,3.36-3.71,5.46c-0.87,2.11-1.31,4.4-1.31,6.87c0,2.43,0.44,4.7,1.31,6.81c0.87,2.11,2.11,3.94,3.71,5.5
			c1.6,1.56,3.48,2.76,5.66,3.61c2.17,0.85,4.54,1.28,7.09,1.28c2.39,0,4.68-0.37,6.87-1.12c2.19-0.75,4.23-1.99,6.1-3.74l3.64,4.86
			c-2.22,1.88-4.8,3.29-7.77,4.25C450.15,895.1,447.09,895.58,443.94,895.58z M460.88,889.89l-6.14-0.83v-16.62h6.14V889.89z"/>
		<path d="M473.08,895.07v-44.74h17.45c5.79,0,10.35,1.37,13.68,4.12s4.99,6.57,4.99,11.47c0,3.24-0.75,6.02-2.24,8.34
			c-1.49,2.32-3.62,4.1-6.39,5.34c-2.77,1.24-6.11,1.85-10.03,1.85H476.6l2.88-2.94v16.55H473.08z M479.47,879.15l-2.88-3.13h13.74
			c4.09,0,7.19-0.88,9.3-2.65c2.11-1.77,3.16-4.25,3.16-7.45c0-3.2-1.05-5.67-3.16-7.41c-2.11-1.75-5.21-2.62-9.3-2.62H476.6
			l2.88-3.2V879.15z M502.99,895.07l-11.38-16.23h6.84l11.5,16.23H502.99z"/>
		<path d="M539.75,895.58c-3.41,0-6.57-0.58-9.49-1.73c-2.92-1.15-5.44-2.76-7.57-4.83c-2.13-2.07-3.79-4.48-4.99-7.25
			c-1.19-2.77-1.79-5.79-1.79-9.08s0.6-6.31,1.79-9.08c1.19-2.77,2.85-5.19,4.99-7.25c2.13-2.07,4.64-3.68,7.54-4.83
			c2.9-1.15,6.07-1.73,9.52-1.73c3.41,0,6.56,0.57,9.46,1.69c2.9,1.13,5.41,2.73,7.54,4.79c2.13,2.07,3.78,4.5,4.95,7.29
			c1.17,2.79,1.76,5.83,1.76,9.11c0,3.32-0.59,6.37-1.76,9.14c-1.17,2.77-2.82,5.19-4.95,7.25c-2.13,2.07-4.65,3.67-7.54,4.79
			C546.31,895.02,543.15,895.58,539.75,895.58z M539.68,889.89c2.51,0,4.83-0.43,6.93-1.28s3.94-2.06,5.5-3.61
			c1.55-1.55,2.77-3.38,3.64-5.46c0.87-2.09,1.31-4.37,1.31-6.84c0-2.47-0.44-4.74-1.31-6.81c-0.87-2.07-2.09-3.89-3.64-5.46
			c-1.56-1.58-3.39-2.79-5.5-3.64c-2.11-0.85-4.42-1.28-6.93-1.28c-2.47,0-4.76,0.43-6.87,1.28c-2.11,0.85-3.95,2.07-5.53,3.64
			c-1.58,1.58-2.8,3.4-3.68,5.46c-0.87,2.07-1.31,4.34-1.31,6.81c0,2.47,0.44,4.75,1.31,6.84c0.87,2.09,2.1,3.91,3.68,5.46
			c1.58,1.56,3.42,2.76,5.53,3.61S537.21,889.89,539.68,889.89z"/>
		<path d="M591.77,895.58c-5.88,0-10.5-1.68-13.87-5.05c-3.37-3.37-5.05-8.29-5.05-14.76v-25.44h6.39v25.18
			c0,4.99,1.1,8.63,3.29,10.93c2.19,2.3,5.29,3.45,9.3,3.45c4.05,0,7.17-1.15,9.36-3.45c2.19-2.3,3.29-5.94,3.29-10.93v-25.18h6.2
			v25.44c0,6.48-1.67,11.4-5.02,14.76C602.33,893.9,597.69,895.58,591.77,895.58z"/>
		<path d="M623.79,895.07v-44.74h17.45c3.92,0,7.26,0.62,10.03,1.85c2.77,1.24,4.9,3.03,6.39,5.37c1.49,2.34,2.24,5.14,2.24,8.37
			c0,3.24-0.75,6.02-2.24,8.34c-1.49,2.32-3.62,4.11-6.39,5.37c-2.77,1.26-6.11,1.89-10.03,1.89h-13.93l2.88-3v16.55H623.79z
			 M630.18,879.15l-2.88-3.2h13.74c4.09,0,7.19-0.87,9.3-2.62c2.11-1.75,3.16-4.22,3.16-7.41c0-3.2-1.05-5.67-3.16-7.41
			c-2.11-1.75-5.21-2.62-9.3-2.62h-13.74l2.88-3.2V879.15z"/>
	</g>
	<g>
		<path class="st9" d="M443.94,895.58c-3.45,0-6.63-0.56-9.52-1.69c-2.9-1.13-5.41-2.73-7.54-4.79c-2.13-2.07-3.79-4.48-4.99-7.25
			c-1.19-2.77-1.79-5.82-1.79-9.14c0-3.32,0.6-6.37,1.79-9.14c1.19-2.77,2.87-5.19,5.02-7.25c2.15-2.07,4.68-3.66,7.57-4.79
			c2.9-1.13,6.09-1.69,9.59-1.69c3.54,0,6.78,0.58,9.71,1.73c2.94,1.15,5.43,2.88,7.48,5.18l-3.96,3.96
			c-1.83-1.79-3.83-3.1-5.98-3.93s-4.48-1.25-7-1.25c-2.56,0-4.93,0.43-7.13,1.28c-2.2,0.85-4.09,2.04-5.69,3.58
			s-2.83,3.36-3.71,5.46c-0.87,2.11-1.31,4.4-1.31,6.87c0,2.43,0.44,4.7,1.31,6.81c0.87,2.11,2.11,3.94,3.71,5.5
			c1.6,1.56,3.48,2.76,5.66,3.61c2.17,0.85,4.54,1.28,7.09,1.28c2.39,0,4.68-0.37,6.87-1.12c2.19-0.75,4.23-1.99,6.1-3.74l3.64,4.86
			c-2.22,1.88-4.8,3.29-7.77,4.25C450.15,895.1,447.09,895.58,443.94,895.58z M460.88,889.89l-6.14-0.83v-16.62h6.14V889.89z"/>
		<path class="st9" d="M473.08,895.07v-44.74h17.45c5.79,0,10.35,1.37,13.68,4.12s4.99,6.57,4.99,11.47c0,3.24-0.75,6.02-2.24,8.34
			c-1.49,2.32-3.62,4.1-6.39,5.34c-2.77,1.24-6.11,1.85-10.03,1.85H476.6l2.88-2.94v16.55H473.08z M479.47,879.15l-2.88-3.13h13.74
			c4.09,0,7.19-0.88,9.3-2.65c2.11-1.77,3.16-4.25,3.16-7.45c0-3.2-1.05-5.67-3.16-7.41c-2.11-1.75-5.21-2.62-9.3-2.62H476.6
			l2.88-3.2V879.15z M502.99,895.07l-11.38-16.23h6.84l11.5,16.23H502.99z"/>
		<path class="st9" d="M539.75,895.58c-3.41,0-6.57-0.58-9.49-1.73c-2.92-1.15-5.44-2.76-7.57-4.83c-2.13-2.07-3.79-4.48-4.99-7.25
			c-1.19-2.77-1.79-5.79-1.79-9.08s0.6-6.31,1.79-9.08c1.19-2.77,2.85-5.19,4.99-7.25c2.13-2.07,4.64-3.68,7.54-4.83
			c2.9-1.15,6.07-1.73,9.52-1.73c3.41,0,6.56,0.57,9.46,1.69c2.9,1.13,5.41,2.73,7.54,4.79c2.13,2.07,3.78,4.5,4.95,7.29
			c1.17,2.79,1.76,5.83,1.76,9.11c0,3.32-0.59,6.37-1.76,9.14c-1.17,2.77-2.82,5.19-4.95,7.25c-2.13,2.07-4.65,3.67-7.54,4.79
			C546.31,895.02,543.15,895.58,539.75,895.58z M539.68,889.89c2.51,0,4.83-0.43,6.93-1.28s3.94-2.06,5.5-3.61
			c1.55-1.55,2.77-3.38,3.64-5.46c0.87-2.09,1.31-4.37,1.31-6.84c0-2.47-0.44-4.74-1.31-6.81c-0.87-2.07-2.09-3.89-3.64-5.46
			c-1.56-1.58-3.39-2.79-5.5-3.64c-2.11-0.85-4.42-1.28-6.93-1.28c-2.47,0-4.76,0.43-6.87,1.28c-2.11,0.85-3.95,2.07-5.53,3.64
			c-1.58,1.58-2.8,3.4-3.68,5.46c-0.87,2.07-1.31,4.34-1.31,6.81c0,2.47,0.44,4.75,1.31,6.84c0.87,2.09,2.1,3.91,3.68,5.46
			c1.58,1.56,3.42,2.76,5.53,3.61S537.21,889.89,539.68,889.89z"/>
		<path class="st9" d="M591.77,895.58c-5.88,0-10.5-1.68-13.87-5.05c-3.37-3.37-5.05-8.29-5.05-14.76v-25.44h6.39v25.18
			c0,4.99,1.1,8.63,3.29,10.93c2.19,2.3,5.29,3.45,9.3,3.45c4.05,0,7.17-1.15,9.36-3.45c2.19-2.3,3.29-5.94,3.29-10.93v-25.18h6.2
			v25.44c0,6.48-1.67,11.4-5.02,14.76C602.33,893.9,597.69,895.58,591.77,895.58z"/>
		<path class="st9" d="M623.79,895.07v-44.74h17.45c3.92,0,7.26,0.62,10.03,1.85c2.77,1.24,4.9,3.03,6.39,5.37
			c1.49,2.34,2.24,5.14,2.24,8.37c0,3.24-0.75,6.02-2.24,8.34c-1.49,2.32-3.62,4.11-6.39,5.37c-2.77,1.26-6.11,1.89-10.03,1.89
			h-13.93l2.88-3v16.55H623.79z M630.18,879.15l-2.88-3.2h13.74c4.09,0,7.19-0.87,9.3-2.62c2.11-1.75,3.16-4.22,3.16-7.41
			c0-3.2-1.05-5.67-3.16-7.41c-2.11-1.75-5.21-2.62-9.3-2.62h-13.74l2.88-3.2V879.15z"/>
	</g>
</g>
</svg>
